<svg width="17" height="18" viewBox="0 0 17 18" fill="none" xmlns="http://www.w3.org/2000/svg">
<path d="M0.00628587 6.09536C-0.0443395 5.09052 0.221441 4.09806 0.759339 3.26574L0.899474 3.06106L0.911075 3.04988L1.00832 2.93576L1.11027 2.81918L1.1218 2.80716C1.31637 2.60775 1.53179 2.43232 1.76419 2.28249L1.82979 2.24101L1.89539 2.2024L2.0498 2.11353C2.11231 2.08386 2.1803 2.04863 2.24282 2.01903C2.28838 2.00138 2.33394 1.97818 2.37943 1.96053C2.46515 1.92446 2.55627 1.88923 2.64733 1.85963C2.67827 1.84437 2.71068 1.83235 2.74387 1.82433L2.78071 1.80957L2.82107 1.79473C3.23641 1.67056 3.66335 1.58485 4.09494 1.54561L4.05022 1.55081V0.655666C4.05022 0.296725 4.33977 0.00654501 4.69781 0.00654501C5.05593 0.00654501 5.34623 0.296725 5.34623 0.655666V3.4851C5.34623 3.84405 5.05591 4.13507 4.69781 4.13507C4.33977 4.13507 4.05022 3.84405 4.05022 3.4851L4.05029 2.83098C3.62518 2.87352 3.20773 2.97927 2.8118 3.14683C1.79014 3.60646 1.30288 4.48172 1.25675 5.86881L1.25309 6.09204V6.44051H14.9479V6.08324C14.9742 5.44085 14.8453 4.80165 14.572 4.22401C14.3095 3.72985 13.8895 3.34614 13.3823 3.13788C13.0593 2.9988 12.721 2.90185 12.3752 2.84889L12.1503 2.82154V3.48171C12.1503 3.83905 11.8603 4.12853 11.5023 4.12853C11.1443 4.12853 10.8542 3.83905 10.8542 3.48171V2.77296L5.35251 2.77345V1.48622L10.8542 1.48594V0.651745C10.851 0.294353 11.1394 0.00248084 11.4974 1.48262e-05C11.8554 -0.00237577 12.1479 0.284633 12.1503 0.642043L12.1508 1.54578C12.4653 1.57678 12.7771 1.63163 13.0841 1.71003L13.3892 1.79623C13.414 1.80101 13.4325 1.80741 13.4665 1.81944C13.5004 1.83146 13.529 1.84348 13.563 1.85466C13.6533 1.88433 13.7374 1.91956 13.8247 1.95563C13.8748 1.97321 13.9212 1.99648 13.9605 2.01406C14.0285 2.04373 14.098 2.07896 14.1536 2.10856C14.2107 2.13823 14.2655 2.17107 14.3134 2.19751C14.3613 2.22394 14.3983 2.25355 14.4385 2.27759C14.6133 2.39052 14.7795 2.51793 14.9347 2.65799L15.0862 2.80227L15.0931 2.8143L15.199 2.92659L15.2985 3.04499L15.3039 3.05617C15.8861 3.86139 16.1993 4.83925 16.2003 5.84097L16.194 6.09186V6.44032H16.2003V13.4191C16.2003 16.4624 14.5007 18 11.1324 18H5.06019C1.69957 18 0 16.4624 0 13.4191V6.44032H0.00611723L0.00628587 6.09536ZM11.8045 12.822C11.3873 12.822 11.0551 13.1646 11.0551 13.5869C11.0629 14.0091 11.395 14.3517 11.8045 14.3517C12.2139 14.3517 12.5461 14.0091 12.5461 13.5869C12.5461 13.1646 12.2139 12.822 11.8045 12.822ZM8.104 12.8141C7.68683 12.822 7.3546 13.1646 7.3546 13.5869C7.3546 14.0091 7.69457 14.3517 8.104 14.3517C8.51343 14.3517 8.84566 14.0091 8.84566 13.5788C8.83793 13.1646 8.51343 12.822 8.104 12.8141ZM4.3958 12.8141C3.97863 12.8141 3.6464 13.1646 3.65414 13.5869C3.65414 14.0091 3.98637 14.3517 4.3958 14.3517C4.80523 14.3517 5.13738 14.0011 5.13738 13.5788C5.13738 13.1566 4.80523 12.8141 4.3958 12.8141ZM11.8045 9.55568C11.3873 9.55568 11.0629 9.89824 11.0629 10.3205C11.0629 10.7427 11.395 11.0853 11.8045 11.0853C12.2139 11.0853 12.5461 10.7427 12.5461 10.3205C12.5461 9.89824 12.2139 9.55568 11.8045 9.55568ZM8.104 9.54766C7.68683 9.55568 7.3546 9.89825 7.3546 10.3205C7.3546 10.7427 7.69457 11.0853 8.104 11.0853C8.51343 11.0853 8.84566 10.7427 8.84566 10.3125C8.84566 9.89823 8.51343 9.55567 8.104 9.54766ZM4.40354 9.54766C3.98637 9.54766 3.65414 9.89825 3.65414 10.3205C3.65414 10.7427 3.98637 11.0853 4.3958 11.0853C4.81297 11.0853 5.14512 10.7347 5.13738 10.3125C5.13738 9.89029 4.80523 9.54766 4.40352 9.54766H4.40354Z" fill="white"/>
</svg>
