<svg width="17" height="12" viewBox="0 0 17 12" fill="none" xmlns="http://www.w3.org/2000/svg">
<path d="M8.18157 8.182C9.38656 8.182 10.3634 7.20516 10.3634 6.00018C10.3634 4.79519 9.38656 3.81836 8.18157 3.81836C6.97659 3.81836 5.99976 4.79519 5.99976 6.00018C5.99976 7.20516 6.97659 8.182 8.18157 8.182Z" fill="white"/>
<path d="M16.3307 5.81455C15.6891 4.15508 14.5754 2.71997 13.1271 1.68659C11.6788 0.653212 9.95949 0.066858 8.18159 0C6.40369 0.066858 4.68434 0.653212 3.23606 1.68659C1.78778 2.71997 0.674038 4.15508 0.0324952 5.81455C-0.0108317 5.93439 -0.0108317 6.06561 0.0324952 6.18545C0.674038 7.84492 1.78778 9.28003 3.23606 10.3134C4.68434 11.3468 6.40369 11.9331 8.18159 12C9.95949 11.9331 11.6788 11.3468 13.1271 10.3134C14.5754 9.28003 15.6891 7.84492 16.3307 6.18545C16.374 6.06561 16.374 5.93439 16.3307 5.81455ZM8.18159 9.54545C7.48036 9.54545 6.79488 9.33752 6.21184 8.94794C5.62879 8.55836 5.17436 8.00463 4.90601 7.35679C4.63767 6.70894 4.56745 5.99607 4.70426 5.30832C4.84106 4.62057 5.17873 3.98883 5.67457 3.49299C6.17041 2.99714 6.80215 2.65947 7.4899 2.52267C8.17765 2.38587 8.89053 2.45608 9.53837 2.72443C10.1862 2.99277 10.7399 3.4472 11.1295 4.03025C11.5191 4.6133 11.727 5.29878 11.727 6C11.7256 6.93987 11.3516 7.84083 10.687 8.50542C10.0224 9.17001 9.12146 9.54401 8.18159 9.54545Z" fill="white"/>
</svg>
