<svg width="28" height="22" viewBox="0 0 28 22" fill="none" xmlns="http://www.w3.org/2000/svg">
<path d="M27.5085 5.70002L27.3155 2.75193C27.2296 1.43462 26.0808 0.286889 24.7637 0.200739L21.8152 0.00816868L17.6344 0.000491783C16.8094 -0.00100099 15.6569 0.474992 15.0734 1.05826L6.1287 10.003C5.31214 10.82 5.3117 12.1562 6.1287 12.973L14.5422 21.3871C15.3592 22.2041 16.6955 22.2041 17.5123 21.3877L26.4581 12.4414C27.0414 11.8583 27.5177 10.7054 27.5163 9.88056L27.5085 5.70002ZM24.1587 6.27413C23.3519 7.07983 22.0448 7.08027 21.2383 6.27413C20.4337 5.46887 20.4331 4.16161 21.2383 3.3559C22.0436 2.5502 23.3517 2.55086 24.158 3.35612C24.9633 4.16204 24.9626 5.46864 24.1587 6.27413L24.1587 6.27413Z" fill="white"/>
<path d="M4.00611 10.0027L12.9519 1.058C13.5145 0.495844 14.6027 0.0375797 15.4197 0.00618801L12.1183 3.50182e-06C11.2934 -0.00148932 10.1411 0.474504 9.55747 1.05777L0.612752 10.0025C-0.204251 10.8195 -0.204251 12.1557 0.612752 12.9725L9.02627 21.3866C9.84262 22.2036 11.1795 22.2036 11.9961 21.3872L12.2083 21.1748L4.00659 12.9726C3.19002 12.1556 3.19046 10.8193 4.00659 10.0026L4.00611 10.0027Z" fill="white"/>
</svg>
